# xmcd
#
# Track frame offsets:
#	150
#	25837
#	47712
#	69817
#	88207
#	114955
#	136252
#	157975
#	180167
#	200630
#	221570
#	241922
#	262972
#
# Disc length: 3855 seconds
#
# Revision: 1
# Processed by: cddbd v1.5.1PL0 Copyright (c) Steve Scherf et al.
# Submitted via: CDex 1.50Beta5
#
DISCID=a50f0d0d
DTITLE=遠藤京子 - 好きと言わないほうがいい
DYEAR=1995
DGENRE=
TTITLE0=好きと言わないほうがいい
TTITLE1=蒼い森
TTITLE2=雪が降るまえに
TTITLE3=素足のままで
TTITLE4=泣きたい日もある
TTITLE5=祈り
TTITLE6=ショーウィンドウの涙
TTITLE7=Long time ago
TTITLE8=恋を知り始めたから
TTITLE9=27才の青春
TTITLE10=恋人になりたい
TTITLE11=愛を与えられないまま
TTITLE12=好きと言わないほうがいい
EXTD=
EXTT0=
EXTT1=
EXTT2=
EXTT3=
EXTT4=
EXTT5=
EXTT6=
EXTT7=
EXTT8=
EXTT9=
EXTT10=
EXTT11=
EXTT12=
PLAYORDER=
